{
  "accessors": [
    {
      "bufferView": 2,
      "componentType": 5126,
      "count": 65532,
      "max": [
        0.29400500655174255,
        0.17765399813652039,
        0.081683002412319183
      ],
      "min": [
        -0.29823601245880127,
        -0.31701698899269104,
        -0.43364900350570679
      ],
      "type": "VEC3"
    },
    {
      "bufferView": 2,
      "byteOffset": 786384,
      "componentType": 5126,
      "count": 65532,
      "max": [
        0.99106526374816895,
        0.99998569488525391,
        0.99999904632568359
      ],
      "min": [
        -0.99996626377105713,
        -0.99869155883789062,
        -0.99999749660491943
      ],
      "type": "VEC3"
    },
    {
      "bufferView": 3,
      "componentType": 5126,
      "count": 65532,
      "max": [
        0.99992692470550537,
        1,
        1,
        1
      ],
      "min": [
        -0.99962633848190308,
        -0.99361568689346313,
        -0.99991482496261597,
        -1
      ],
      "type": "VEC4"
    },
    {
      "bufferView": 1,
      "componentType": 5126,
      "count": 65532,
      "max": [
        0.8891950249671936,
        0.87419497966766357
      ],
      "min": [
        0.0050949999131262302,
        0.024414999410510063
      ],
      "type": "VEC2"
    },
    {
      "bufferView": 0,
      "componentType": 5125,
      "count": 356958,
      "max": [
        65531
      ],
      "min": [
        0
      ],
      "type": "SCALAR"
    },
    {
      "bufferView": 2,
      "byteOffset": 1572768,
      "componentType": 5126,
      "count": 65532,
      "max": [
        0.29803499579429626,
        0.17884999513626099,
        0.57962697744369507
      ],
      "min": [
        -0.29734700918197632,
        -0.37889000773429871,
        -0.44178101420402527
      ],
      "type": "VEC3"
    },
    {
      "bufferView": 2,
      "byteOffset": 2359152,
      "componentType": 5126,
      "count": 65532,
      "max": [
        0.99998974800109863,
        0.9999927282333374,
        0.99999988079071045
      ],
      "min": [
        -0.9998633861541748,
        -0.99992334842681885,
        -0.99991118907928467
      ],
      "type": "VEC3"
    },
    {
      "bufferView": 3,
      "byteOffset": 1048512,
      "componentType": 5126,
      "count": 65532,
      "max": [
        0.99997532367706299,
        1,
        0.9999997615814209,
        1
      ],
      "min": [
        -0.99940961599349976,
        -0.99731463193893433,
        -0.99999910593032837,
        -1
      ],
      "type": "VEC4"
    },
    {
      "bufferView": 1,
      "byteOffset": 524256,
      "componentType": 5126,
      "count": 65532,
      "max": [
        0.99960500001907349,
        0.99355798959732056
      ],
      "min": [
        0.021368000656366348,
        0.0051110000349581242
      ],
      "type": "VEC2"
    },
    {
      "bufferView": 0,
      "byteOffset": 1427832,
      "componentType": 5125,
      "count": 333564,
      "max": [
        65531
      ],
      "min": [
        0
      ],
      "type": "SCALAR"
    },
    {
      "bufferView": 2,
      "byteOffset": 3145536,
      "componentType": 5126,
      "count": 64354,
      "max": [
        0.29707300662994385,
        0.17765399813652039,
        0.57955998182296753
      ],
      "min": [
        -0.29723900556564331,
        -0.37834098935127258,
        -0.44171801209449768
      ],
      "type": "VEC3"
    },
    {
      "bufferView": 2,
      "byteOffset": 3917784,
      "componentType": 5126,
      "count": 64354,
      "max": [
        0.99988746643066406,
        0.99999916553497314,
        0.9999992847442627
      ],
      "min": [
        -0.9997820258140564,
        -0.99999344348907471,
        -0.99997925758361816
      ],
      "type": "VEC3"
    },
    {
      "bufferView": 3,
      "byteOffset": 2097024,
      "componentType": 5126,
      "count": 64354,
      "max": [
        0.99975985288619995,
        0.9999997615814209,
        1,
        1
      ],
      "min": [
        -0.99961739778518677,
        -0.99955916404724121,
        -1,
        -1
      ],
      "type": "VEC4"
    },
    {
      "bufferView": 1,
      "byteOffset": 1048512,
      "componentType": 5126,
      "count": 64354,
      "max": [
        0.99960500001907349,
        0.99661701917648315
      ],
      "min": [
        0.0060259997844696045,
        0.0050949999131262302
      ],
      "type": "VEC2"
    },
    {
      "bufferView": 0,
      "byteOffset": 2762088,
      "componentType": 5125,
      "count": 298362,
      "max": [
        64353
      ],
      "min": [
        0
      ],
      "type": "SCALAR"
    }
  ],
  "asset": {
    "extras": {
      "author": "Marc Sawyer - Whitewash Studio Architecture (https://sketchfab.com/whitewashstudio)",
      "license": "CC-BY-4.0 (http://creativecommons.org/licenses/by/4.0/)",
      "source": "https://sketchfab.com/3d-models/red-chair-c7123b7afd7f4f908fd0e24b92cb3df1",
      "title": "Red Chair"
    },
    "generator": "Sketchfab-8.43.0",
    "version": "2.0"
  },
  "bufferViews": [
    {
      "buffer": 0,
      "byteLength": 3955536,
      "byteOffset": 0,
      "name": "floatBufferViews",
      "target": 34963
    },
    {
      "buffer": 0,
      "byteLength": 1563344,
      "byteOffset": 3955536,
      "byteStride": 8,
      "name": "floatBufferViews",
      "target": 34962
    },
    {
      "buffer": 0,
      "byteLength": 4690032,
      "byteOffset": 5518880,
      "byteStride": 12,
      "name": "floatBufferViews",
      "target": 34962
    },
    {
      "buffer": 0,
      "byteLength": 3126688,
      "byteOffset": 10208912,
      "byteStride": 16,
      "name": "floatBufferViews",
      "target": 34962
    }
  ],
  "buffers": [
    {
      "byteLength": 13335600,
      "uri": "scene.bin"
    }
  ],
  "images": [
    {
      "uri": "textures/1001_baseColor.png"
    },
    {
      "uri": "textures/1001_metallicRoughness.png"
    },
    {
      "uri": "textures/1001_normal.png"
    }
  ],
  "materials": [
    {
      "doubleSided": true,
      "name": "1001",
      "normalTexture": {
        "index": 2,
        "scale": 1,
        "texCoord": 0
      },
      "pbrMetallicRoughness": {
        "baseColorFactor": [
          1,
          1,
          1,
          1
        ],
        "baseColorTexture": {
          "index": 0,
          "texCoord": 0
        },
        "metallicFactor": 0.086640132590517879,
        "metallicRoughnessTexture": {
          "index": 1,
          "texCoord": 0
        },
        "roughnessFactor": 0.15947246043310292
      }
    }
  ],
  "meshes": [
    {
      "primitives": [
        {
          "attributes": {
            "NORMAL": 1,
            "POSITION": 0,
            "TANGENT": 2,
            "TEXCOORD_0": 3
          },
          "indices": 4,
          "material": 0,
          "mode": 4
        }
      ]
    },
    {
      "primitives": [
        {
          "attributes": {
            "NORMAL": 6,
            "POSITION": 5,
            "TANGENT": 7,
            "TEXCOORD_0": 8
          },
          "indices": 9,
          "material": 0,
          "mode": 4
        }
      ]
    },
    {
      "primitives": [
        {
          "attributes": {
            "NORMAL": 11,
            "POSITION": 10,
            "TANGENT": 12,
            "TEXCOORD_0": 13
          },
          "indices": 14,
          "material": 0,
          "mode": 4
        }
      ]
    }
  ],
  "nodes": [
    {
      "children": [
        1
      ],
      "name": "RootNode (gltf orientation matrix)",
      "rotation": [
        -0.70710678118654746,
        -0,
        -0,
        0.70710678118654757
      ]
    },
    {
      "children": [
        2
      ],
      "name": "RootNode (model correction matrix)"
    },
    {
      "children": [
        3,
        4,
        5
      ],
      "name": "RedChair.obj.cleaner.materialmerger.gles"
    },
    {
      "mesh": 0,
      "name": ""
    },
    {
      "mesh": 1,
      "name": ""
    },
    {
      "mesh": 2,
      "name": ""
    }
  ],
  "samplers": [
    {
      "magFilter": 9729,
      "minFilter": 9987,
      "wrapS": 10497,
      "wrapT": 10497
    }
  ],
  "scene": 0,
  "scenes": [
    {
      "name": "OSG_Scene",
      "nodes": [
        0
      ]
    }
  ],
  "textures": [
    {
      "sampler": 0,
      "source": 0
    },
    {
      "sampler": 0,
      "source": 1
    },
    {
      "sampler": 0,
      "source": 2
    }
  ]
}

